<?xml version="1.0" standalone="no"?>
<!DOCTYPE svg PUBLIC "-//W3C//DTD SVG 20010904//EN"
 "http://www.w3.org/TR/2001/REC-SVG-20010904/DTD/svg10.dtd">
<svg version="1.0" xmlns="http://www.w3.org/2000/svg"
 width="1016.000000pt" height="1280.000000pt" viewBox="0 0 1016.000000 1280.000000"
 preserveAspectRatio="xMidYMid meet">
<metadata>
Created by potrace 1.15, written by Peter Selinger 2001-2017
</metadata>
<g transform="translate(0.000000,1280.000000) scale(0.100000,-0.100000)"
fill="#000000" stroke="none">
<path d="M4690 12397 c0 -396 0 -404 -21 -423 -18 -16 -20 -28 -18 -89 2 -38
-1 -77 -6 -85 -6 -9 -11 -261 -13 -640 -1 -344 -2 -659 -3 -700 0 -63 3 -78
19 -91 14 -11 18 -23 15 -42 -4 -22 -8 -25 -19 -16 -22 18 -104 -16 -104 -42
0 -14 -12 -25 -37 -35 -21 -9 -72 -31 -115 -51 l-76 -35 -36 27 c-20 15 -46
42 -58 59 -12 17 -32 43 -45 57 -19 21 -21 28 -10 37 16 14 81 28 180 40 80
10 117 29 117 62 0 20 -80 30 -285 34 -175 4 -300 14 -360 28 -76 18 -199 13
-280 -12 -87 -27 -117 -42 -180 -90 -57 -43 -272 -168 -390 -228 -101 -50
-175 -105 -295 -218 -53 -49 -131 -121 -173 -160 -73 -67 -77 -73 -77 -113 0
-52 70 -365 107 -476 31 -94 67 -170 156 -321 68 -117 76 -162 18 -104 -17 18
-37 30 -44 28 -6 -3 -70 -20 -142 -39 l-130 -33 -181 -181 c-204 -203 -225
-235 -264 -405 -12 -52 -41 -169 -65 -260 -24 -91 -51 -194 -59 -230 -8 -36
-35 -130 -61 -210 -54 -172 -75 -295 -75 -445 1 -236 27 -378 76 -422 38 -35
140 -32 279 7 59 17 109 29 110 28 1 -2 7 -84 14 -183 27 -438 126 -857 299
-1277 l70 -167 -36 -21 c-19 -12 -73 -28 -121 -36 -180 -31 -442 -108 -627
-185 -191 -79 -520 -248 -639 -328 -229 -152 -468 -377 -535 -501 -31 -58 -34
-73 -34 -140 1 -125 56 -234 157 -310 113 -86 427 -225 652 -290 189 -54 633
-209 790 -277 83 -35 188 -85 235 -111 75 -42 86 -51 95 -85 11 -39 13 -41 41
-30 8 3 26 1 40 -5 37 -18 31 -54 -21 -118 -25 -30 -45 -59 -45 -64 0 -6 0
-13 0 -17 0 -5 80 -8 178 -8 142 -1 188 -4 230 -19 52 -17 53 -18 36 -37 -9
-10 -25 -19 -34 -19 -27 0 -60 -43 -60 -79 0 -37 32 -96 60 -111 47 -25 83 -1
95 62 8 41 16 46 34 24 21 -25 201 -123 306 -167 54 -23 115 -54 135 -69 40
-32 104 -55 127 -46 9 4 32 -5 55 -20 27 -19 50 -27 81 -26 23 0 52 -6 65 -14
12 -8 70 -19 130 -25 177 -16 311 -59 432 -137 122 -79 212 -122 255 -122 32
0 46 9 103 65 l66 65 -24 43 c-13 23 -37 60 -54 82 -56 73 -210 235 -247 260
-40 26 -268 214 -364 299 -62 55 -108 114 -120 154 -5 19 -1 25 29 37 19 8 37
18 39 22 10 16 -12 201 -28 241 -20 49 -28 51 -124 23 -64 -19 -241 -33 -441
-35 -69 -1 -96 4 -140 23 -30 13 -63 30 -73 39 -10 9 -28 17 -40 18 -12 1 -74
26 -137 57 -226 109 -298 137 -311 121 -16 -19 -42 2 -34 27 5 14 1 19 -14 19
-12 0 -21 -8 -23 -20 -3 -19 -12 -15 -101 40 -54 33 -157 103 -229 157 -73 53
-205 144 -295 203 l-162 107 139 27 c224 43 283 61 997 318 l111 40 38 -44
c79 -90 284 -282 419 -391 501 -406 1117 -683 1740 -781 170 -27 380 -46 509
-46 l79 0 271 -139 c149 -76 420 -214 601 -306 436 -222 603 -316 720 -404 34
-25 40 -35 40 -68 0 -37 1 -38 35 -38 31 0 35 -3 32 -25 -1 -13 -11 -33 -21
-45 -10 -11 -24 -30 -30 -43 -10 -18 -9 -23 4 -28 9 -4 15 -19 15 -38 0 -54
15 -63 120 -69 52 -4 118 -13 145 -22 28 -8 60 -15 72 -15 34 0 37 -18 9 -47
-22 -22 -26 -35 -26 -85 0 -54 3 -63 30 -88 39 -37 89 -49 106 -26 6 9 15 41
19 71 4 36 11 55 20 55 7 0 36 -28 63 -63 57 -71 304 -307 321 -307 7 0 17
-14 23 -30 6 -18 19 -32 33 -36 28 -7 82 -62 87 -89 2 -12 13 -21 28 -23 30
-4 80 -49 80 -72 0 -22 20 -40 45 -40 12 0 32 -11 45 -25 12 -13 27 -22 32
-19 5 3 34 -20 65 -51 42 -42 80 -67 152 -100 53 -25 125 -61 161 -81 144 -78
194 -98 245 -98 71 0 105 23 156 100 39 60 44 74 42 119 -3 64 -64 190 -134
277 -28 35 -60 81 -71 103 -37 72 -79 129 -153 205 -40 41 -94 102 -120 135
-70 87 -137 234 -107 235 4 0 15 12 25 25 17 23 17 29 1 115 -10 55 -25 101
-37 117 -20 24 -23 25 -106 21 -63 -4 -105 0 -158 13 -40 10 -108 21 -150 25
-43 4 -102 15 -130 26 -80 30 -181 89 -186 109 -3 11 -14 19 -27 19 -13 0 -86
47 -169 108 -238 176 -238 177 -255 163 -18 -15 -30 1 -21 29 7 22 -13 27 -44
11 -18 -10 -70 34 -393 338 -79 74 -187 170 -241 215 -90 73 -97 81 -75 87 68
19 341 139 473 208 1547 805 2342 2610 1916 4351 -334 1365 -1381 2448 -2704
2794 -446 117 -857 148 -1322 100 -148 -15 -400 -61 -524 -95 -63 -18 -76 -19
-88 -7 -11 12 -14 129 -16 714 -1 430 -6 705 -12 714 -5 8 -8 46 -6 83 2 53
-1 73 -14 87 -19 21 -22 88 -24 533 l-1 297 -45 0 -45 0 0 -403z m1440 -2152
c1619 -141 2928 -1393 3185 -3045 168 -1083 -157 -2191 -881 -3001 -406 -453
-963 -813 -1530 -988 l-101 -31 -94 44 c-190 88 -302 116 -469 116 -206 0
-323 28 -442 107 -77 50 -117 93 -297 312 -289 352 -643 708 -881 884 -176
130 -191 144 -184 174 4 13 1 30 -6 38 -9 11 -10 22 -2 42 20 53 24 139 9 190
-47 155 -113 266 -190 317 -30 20 -59 36 -66 36 -28 0 -256 102 -301 135 -29
21 -63 37 -81 38 -60 4 -197 144 -255 262 -19 38 -39 97 -45 130 -22 120 9
321 70 448 40 83 166 283 207 329 30 34 58 75 162 238 85 135 139 266 181 440
21 91 42 182 46 203 3 21 10 35 16 31 5 -3 16 0 24 6 12 10 20 9 40 -4 33 -21
32 -28 -2 -15 l-27 10 19 -22 c44 -48 364 -184 449 -191 11 0 1 -4 -24 -7 -38
-6 -29 -8 60 -14 119 -9 291 -4 311 9 8 5 22 7 33 5 12 -2 16 1 11 10 -5 8 -4
10 4 5 16 -11 70 9 201 73 105 51 124 64 215 156 56 55 116 122 134 149 40 58
107 209 117 263 3 21 17 62 31 92 16 36 21 57 14 65 -6 7 -8 21 -5 33 3 12 1
30 -5 42 -10 18 -9 21 6 22 10 1 21 1 26 0 11 -2 8 12 -10 34 -12 16 -14 16
-10 3 3 -10 1 -20 -5 -24 -7 -4 -8 -3 -4 4 4 7 2 12 -3 12 -18 0 -12 29 9 47
12 11 20 30 20 49 0 18 4 34 10 36 5 2 12 33 14 69 3 43 11 77 25 100 21 35
27 59 14 59 -5 0 -9 21 -10 46 -2 52 -35 151 -69 204 -30 48 -190 204 -201
197 -5 -3 -22 6 -39 19 l-29 26 35 -22 35 -22 -29 26 c-17 13 -33 23 -37 20
-4 -2 -38 15 -75 38 -37 24 -71 42 -76 40 -6 -1 -18 3 -27 10 -13 10 -13 9 2
-8 9 -11 17 -24 17 -27 0 -9 -50 2 -65 13 -5 5 -27 15 -49 24 -27 11 -35 12
-28 3 9 -10 -10 -9 -76 5 -48 10 -177 24 -287 32 -262 19 -311 34 -394 116
-79 80 -94 79 -150 -2 -31 -47 -53 -59 -67 -37 -4 7 -20 8 -43 5 -20 -4 -49
-7 -66 -7 -43 1 -70 -21 -84 -68 -6 -23 -17 -42 -24 -43 -7 0 -33 -2 -59 -2
-55 -1 -94 -26 -121 -77 -22 -42 -18 -121 14 -278 14 -68 19 -121 15 -150 -9
-71 -68 -178 -148 -268 -40 -45 -91 -111 -113 -147 -22 -36 -43 -64 -46 -63
-3 1 -28 29 -55 62 -201 247 -216 269 -281 400 l-67 133 39 49 c283 350 687
669 1123 887 175 87 264 122 289 111 26 -11 125 -14 145 -4 9 5 22 24 28 44 9
29 14 33 28 24 25 -16 85 2 97 29 13 28 85 52 273 88 306 59 624 76 932 49z
m-2352 -29 c10 -12 47 -113 84 -228 l24 -76 -28 -16 c-15 -9 -98 -70 -185
-135 -190 -143 -361 -297 -497 -447 -56 -62 -104 -112 -107 -113 -4 -1 -22 22
-40 50 -18 28 -59 85 -91 127 -86 112 -89 150 -15 201 23 16 173 158 332 317
160 158 307 297 328 309 29 17 55 22 112 22 44 1 78 -4 83 -11z m170 -49 c15
-12 82 -140 82 -157 0 -10 -79 -64 -85 -58 -2 2 -13 41 -24 88 -12 47 -26 100
-30 117 -9 32 -8 33 17 27 15 -4 33 -12 40 -17z m191 -42 c42 -21 45 -41 10
-55 -16 -7 -31 -11 -32 -9 -8 11 -27 61 -27 69 0 14 17 12 49 -5z m-1469
-1455 c8 -15 7 -27 -5 -50 -9 -16 -19 -30 -24 -30 -5 0 -35 10 -66 22 -49 19
-54 23 -41 36 12 12 88 38 118 41 4 1 12 -8 18 -19z m259 -212 c76 -125 233
-401 252 -443 26 -56 24 -71 -8 -78 -16 -4 -58 -30 -95 -59 -132 -105 -281
-211 -416 -295 -75 -48 -152 -97 -169 -111 -24 -17 -33 -20 -33 -10 0 31 92
351 135 468 25 69 75 191 112 273 l66 147 51 0 c53 1 93 20 81 40 -4 6 -24 18
-46 27 l-39 15 27 49 c14 27 29 49 32 49 3 0 26 -33 50 -72z m-458 -164 c17
-15 17 -19 -7 -73 -52 -116 -136 -361 -179 -521 -46 -173 -105 -472 -105 -534
0 -20 -3 -36 -7 -36 -5 0 -8 201 -8 448 0 412 1 451 19 505 12 38 29 66 48 80
16 12 58 48 95 79 58 50 77 61 117 67 5 0 17 -6 27 -15z m1734 -526 c26 -12
34 -28 13 -28 -15 1 -48 24 -48 34 0 9 5 8 35 -6z m1285 -21 c0 -2 -10 -12
-22 -23 l-23 -19 19 23 c18 21 26 27 26 19z m-1296 -28 c-8 -14 -24 -10 -24 6
0 9 6 12 15 9 8 -4 12 -10 9 -15z m106 -16 c0 -7 -39 17 -46 28 -3 6 5 3 20
-6 14 -10 26 -19 26 -22z m1060 -38 c0 -8 -82 -47 -87 -41 -3 3 14 14 38 25
52 23 49 22 49 16z m-110 -55 c-8 -5 -19 -10 -25 -10 -5 0 -3 5 5 10 8 5 20
10 25 10 6 0 3 -5 -5 -10z m-95 -35 c-57 -25 -180 -46 -290 -50 l-110 -4 100
9 c94 8 292 44 303 55 3 3 10 5 16 4 6 0 -3 -7 -19 -14z m-98 -61 c-3 -3 -12
-4 -19 -1 -8 3 -5 6 6 6 11 1 17 -2 13 -5z m-62 -14 c-16 -4 -75 -7 -130 -7
l-100 1 95 6 c52 3 111 7 130 7 l35 1 -30 -8z m-2517 -852 c0 -100 7 -129 82
-323 77 -200 128 -458 165 -830 8 -88 22 -189 29 -225 9 -40 11 -69 5 -76 -5
-6 -15 -29 -23 -50 -14 -39 -14 -39 -24 -14 -5 14 -35 86 -65 160 -155 380
-250 817 -263 1218 l-7 190 44 20 c24 11 47 21 50 21 4 1 6 -41 7 -91z m1140
-2616 c43 -37 61 -46 95 -47 35 -2 59 -15 148 -81 610 -453 728 -525 1099
-679 102 -42 189 -80 194 -85 15 -15 -282 66 -404 109 -461 165 -911 443
-1237 765 l-103 101 32 16 c31 16 32 16 77 -18 25 -19 69 -56 99 -81z m-664
-1706 c17 -31 17 -39 5 -77 -8 -23 -20 -44 -27 -47 -7 -2 -28 12 -47 31 -40
40 -49 98 -17 116 36 21 66 13 86 -23z m216 -113 c0 -2 -18 6 -40 18 -22 13
-40 26 -40 31 0 5 18 -4 40 -18 22 -15 40 -29 40 -31z m4837 -687 c-7 -17 18
-40 33 -31 15 9 11 -13 -13 -80 -25 -68 -46 -79 -84 -43 -22 20 -24 29 -21 80
2 31 10 63 17 72 17 21 75 22 68 2z m238 -206 c3 -5 1 -10 -4 -10 -6 0 -11 5
-11 10 0 6 2 10 4 10 3 0 8 -4 11 -10z"/>
<path d="M4528 7483 c7 -3 16 -2 19 1 4 3 -2 6 -13 5 -11 0 -14 -3 -6 -6z"/>
<path d="M4578 7473 c6 -2 18 -2 25 0 6 3 1 5 -13 5 -14 0 -19 -2 -12 -5z"/>
<path d="M4928 7443 c6 -2 18 -2 25 0 6 3 1 5 -13 5 -14 0 -19 -2 -12 -5z"/>
</g>
</svg>
